<svg xmlns="http://www.w3.org/2000/svg" xmlns:xlink="http://www.w3.org/1999/xlink" width="512" zoomAndPan="magnify" viewBox="0 0 384 383.999986" height="512" preserveAspectRatio="xMidYMid meet" version="1.0"><defs><clipPath id="ac125c8df1"><path d="M 271.402344 177.714844 L 384 177.714844 L 384 384 L 271.402344 384 Z M 271.402344 177.714844 " clip-rule="nonzero"/></clipPath><clipPath id="e92d362972"><path d="M 295.402344 177.714844 L 360 177.714844 C 366.363281 177.714844 372.46875 180.246094 376.96875 184.746094 C 381.472656 189.246094 384 195.351562 384 201.714844 L 384 378.828125 C 384 385.191406 381.472656 391.296875 376.96875 395.796875 C 372.46875 400.296875 366.363281 402.828125 360 402.828125 L 295.402344 402.828125 C 289.035156 402.828125 282.933594 400.296875 278.433594 395.796875 C 273.929688 391.296875 271.402344 385.191406 271.402344 378.828125 L 271.402344 201.714844 C 271.402344 195.351562 273.929688 189.246094 278.433594 184.746094 C 282.933594 180.246094 289.035156 177.714844 295.402344 177.714844 Z M 295.402344 177.714844 " clip-rule="nonzero"/></clipPath><clipPath id="fc3556167f"><path d="M 136.011719 0 L 247.988281 0 L 247.988281 384 L 136.011719 384 Z M 136.011719 0 " clip-rule="nonzero"/></clipPath><clipPath id="411e9fc11c"><path d="M 160.011719 0 L 223.988281 0 C 230.351562 0 236.457031 2.527344 240.957031 7.03125 C 245.460938 11.53125 247.988281 17.636719 247.988281 24 L 247.988281 378.828125 C 247.988281 385.191406 245.460938 391.296875 240.957031 395.796875 C 236.457031 400.296875 230.351562 402.828125 223.988281 402.828125 L 160.011719 402.828125 C 153.648438 402.828125 147.542969 400.296875 143.042969 395.796875 C 138.539062 391.296875 136.011719 385.191406 136.011719 378.828125 L 136.011719 24 C 136.011719 17.636719 138.539062 11.53125 143.042969 7.03125 C 147.542969 2.527344 153.648438 0 160.011719 0 Z M 160.011719 0 " clip-rule="nonzero"/></clipPath><clipPath id="6e93df69c7"><path d="M 0 252.773438 L 112.414062 252.773438 L 112.414062 384 L 0 384 Z M 0 252.773438 " clip-rule="nonzero"/></clipPath><clipPath id="2b191cbdfb"><path d="M 24 252.773438 L 88.414062 252.773438 C 94.777344 252.773438 100.882812 255.300781 105.382812 259.804688 C 109.882812 264.304688 112.414062 270.410156 112.414062 276.773438 L 112.414062 378.828125 C 112.414062 385.191406 109.882812 391.296875 105.382812 395.796875 C 100.882812 400.296875 94.777344 402.828125 88.414062 402.828125 L 24 402.828125 C 17.636719 402.828125 11.53125 400.296875 7.03125 395.796875 C 2.527344 391.296875 0 385.191406 0 378.828125 L 0 276.773438 C 0 270.410156 2.527344 264.304688 7.03125 259.804688 C 11.53125 255.300781 17.636719 252.773438 24 252.773438 Z M 24 252.773438 " clip-rule="nonzero"/></clipPath></defs><g clip-path="url(#ac125c8df1)"><g clip-path="url(#e92d362972)"><path fill="#262626" d="M 271.402344 177.714844 L 384 177.714844 L 384 402.828125 L 271.402344 402.828125 Z M 271.402344 177.714844 " fill-opacity="1" fill-rule="nonzero"/></g></g><g clip-path="url(#fc3556167f)"><g clip-path="url(#411e9fc11c)"><path fill="#262626" d="M 136.011719 0 L 247.988281 0 L 247.988281 402.828125 L 136.011719 402.828125 Z M 136.011719 0 " fill-opacity="1" fill-rule="nonzero"/></g></g><g clip-path="url(#6e93df69c7)"><g clip-path="url(#2b191cbdfb)"><path fill="#262626" d="M 0 252.773438 L 112.414062 252.773438 L 112.414062 402.828125 L 0 402.828125 Z M 0 252.773438 " fill-opacity="1" fill-rule="nonzero"/></g></g></svg>