<svg xmlns="http://www.w3.org/2000/svg" xmlns:xlink="http://www.w3.org/1999/xlink" width="512" zoomAndPan="magnify" viewBox="0 0 384 383.999986" height="512" preserveAspectRatio="xMidYMid meet" version="1.0"><defs><clipPath id="c5d44b4960"><path d="M 135.699219 177.714844 L 248.300781 177.714844 L 248.300781 384 L 135.699219 384 Z M 135.699219 177.714844 " clip-rule="nonzero"/></clipPath><clipPath id="bd04c395ce"><path d="M 159.699219 177.714844 L 224.300781 177.714844 C 230.664062 177.714844 236.769531 180.246094 241.269531 184.746094 C 245.769531 189.246094 248.300781 195.351562 248.300781 201.714844 L 248.300781 378.828125 C 248.300781 385.191406 245.769531 391.296875 241.269531 395.796875 C 236.769531 400.296875 230.664062 402.828125 224.300781 402.828125 L 159.699219 402.828125 C 153.335938 402.828125 147.230469 400.296875 142.730469 395.796875 C 138.230469 391.296875 135.699219 385.191406 135.699219 378.828125 L 135.699219 201.714844 C 135.699219 195.351562 138.230469 189.246094 142.730469 184.746094 C 147.230469 180.246094 153.335938 177.714844 159.699219 177.714844 Z M 159.699219 177.714844 " clip-rule="nonzero"/></clipPath><clipPath id="21f9b5e599"><path d="M 271.550781 0 L 383.523438 0 L 383.523438 384 L 271.550781 384 Z M 271.550781 0 " clip-rule="nonzero"/></clipPath><clipPath id="2519ebee49"><path d="M 295.550781 0 L 359.523438 0 C 365.890625 0 371.992188 2.527344 376.496094 7.03125 C 380.996094 11.53125 383.523438 17.636719 383.523438 24 L 383.523438 378.828125 C 383.523438 385.191406 380.996094 391.296875 376.496094 395.796875 C 371.992188 400.296875 365.890625 402.828125 359.523438 402.828125 L 295.550781 402.828125 C 289.183594 402.828125 283.078125 400.296875 278.578125 395.796875 C 274.078125 391.296875 271.550781 385.191406 271.550781 378.828125 L 271.550781 24 C 271.550781 17.636719 274.078125 11.53125 278.578125 7.03125 C 283.078125 2.527344 289.183594 0 295.550781 0 Z M 295.550781 0 " clip-rule="nonzero"/></clipPath><clipPath id="9f0558aa0a"><path d="M 0 252.773438 L 112.414062 252.773438 L 112.414062 384 L 0 384 Z M 0 252.773438 " clip-rule="nonzero"/></clipPath><clipPath id="68f68a5d8d"><path d="M 24 252.773438 L 88.414062 252.773438 C 94.777344 252.773438 100.882812 255.300781 105.382812 259.804688 C 109.882812 264.304688 112.414062 270.410156 112.414062 276.773438 L 112.414062 378.828125 C 112.414062 385.191406 109.882812 391.296875 105.382812 395.796875 C 100.882812 400.296875 94.777344 402.828125 88.414062 402.828125 L 24 402.828125 C 17.636719 402.828125 11.53125 400.296875 7.03125 395.796875 C 2.527344 391.296875 0 385.191406 0 378.828125 L 0 276.773438 C 0 270.410156 2.527344 264.304688 7.03125 259.804688 C 11.53125 255.300781 17.636719 252.773438 24 252.773438 Z M 24 252.773438 " clip-rule="nonzero"/></clipPath></defs><g clip-path="url(#c5d44b4960)"><g clip-path="url(#bd04c395ce)"><path fill="#262626" d="M 135.699219 177.714844 L 248.300781 177.714844 L 248.300781 402.828125 L 135.699219 402.828125 Z M 135.699219 177.714844 " fill-opacity="1" fill-rule="nonzero"/></g></g><g clip-path="url(#21f9b5e599)"><g clip-path="url(#2519ebee49)"><path fill="#262626" d="M 271.550781 0 L 383.523438 0 L 383.523438 402.828125 L 271.550781 402.828125 Z M 271.550781 0 " fill-opacity="1" fill-rule="nonzero"/></g></g><g clip-path="url(#9f0558aa0a)"><g clip-path="url(#68f68a5d8d)"><path fill="#262626" d="M 0 252.773438 L 112.414062 252.773438 L 112.414062 402.828125 L 0 402.828125 Z M 0 252.773438 " fill-opacity="1" fill-rule="nonzero"/></g></g></svg>