<svg xmlns="http://www.w3.org/2000/svg" xmlns:xlink="http://www.w3.org/1999/xlink" width="512" zoomAndPan="magnify" viewBox="0 0 384 383.999986" height="512" preserveAspectRatio="xMidYMid meet" version="1.0"><defs><clipPath id="d8f3550cc8"><path d="M 270.34375 166.980469 L 382.941406 166.980469 L 382.941406 384 L 270.34375 384 Z M 270.34375 166.980469 " clip-rule="nonzero"/></clipPath><clipPath id="228217b953"><path d="M 282.34375 166.980469 L 370.941406 166.980469 C 377.566406 166.980469 382.941406 172.351562 382.941406 178.980469 L 382.941406 380.089844 C 382.941406 386.71875 377.566406 392.089844 370.941406 392.089844 L 282.34375 392.089844 C 275.714844 392.089844 270.34375 386.71875 270.34375 380.089844 L 270.34375 178.980469 C 270.34375 172.351562 275.714844 166.980469 282.34375 166.980469 Z M 282.34375 166.980469 " clip-rule="nonzero"/></clipPath><clipPath id="be8e010a02"><path d="M 136.011719 0 L 247.988281 0 L 247.988281 384 L 136.011719 384 Z M 136.011719 0 " clip-rule="nonzero"/></clipPath><clipPath id="f08fe82973"><path d="M 148.011719 0 L 235.988281 0 C 242.613281 0 247.988281 5.371094 247.988281 12 L 247.988281 380.089844 C 247.988281 386.71875 242.613281 392.089844 235.988281 392.089844 L 148.011719 392.089844 C 141.386719 392.089844 136.011719 386.71875 136.011719 380.089844 L 136.011719 12 C 136.011719 5.371094 141.386719 0 148.011719 0 Z M 148.011719 0 " clip-rule="nonzero"/></clipPath><clipPath id="8b892a97dd"><path d="M 1.101562 268.800781 L 113.511719 268.800781 L 113.511719 384 L 1.101562 384 Z M 1.101562 268.800781 " clip-rule="nonzero"/></clipPath><clipPath id="b8d0d1a57e"><path d="M 13.101562 268.800781 L 101.511719 268.800781 C 108.140625 268.800781 113.511719 274.171875 113.511719 280.800781 L 113.511719 380.089844 C 113.511719 386.71875 108.140625 392.089844 101.511719 392.089844 L 13.101562 392.089844 C 6.472656 392.089844 1.101562 386.71875 1.101562 380.089844 L 1.101562 280.800781 C 1.101562 274.171875 6.472656 268.800781 13.101562 268.800781 Z M 13.101562 268.800781 " clip-rule="nonzero"/></clipPath></defs><g clip-path="url(#d8f3550cc8)"><g clip-path="url(#228217b953)"><path fill="#22c55e" d="M 270.34375 166.980469 L 382.941406 166.980469 L 382.941406 392.089844 L 270.34375 392.089844 Z M 270.34375 166.980469 " fill-opacity="1" fill-rule="nonzero"/></g></g><g clip-path="url(#be8e010a02)"><g clip-path="url(#f08fe82973)"><path fill="#f43f5e" d="M 136.011719 0 L 247.988281 0 L 247.988281 392.089844 L 136.011719 392.089844 Z M 136.011719 0 " fill-opacity="1" fill-rule="nonzero"/></g></g><g clip-path="url(#8b892a97dd)"><g clip-path="url(#b8d0d1a57e)"><path fill="#fc933d" d="M 1.101562 268.800781 L 113.511719 268.800781 L 113.511719 392.089844 L 1.101562 392.089844 Z M 1.101562 268.800781 " fill-opacity="1" fill-rule="nonzero"/></g></g></svg>